<?xml version="1.0" standalone="yes"?><svg xmlns="http://www.w3.org/2000/svg" version="1.1" width="360" height="360" viewBox="0 0 360 360" shape-rendering="crispEdges"><rect x="0" y="0" width="360" height="360" fill="#efe1bf"/><path fill="#2b1810" d="M32 32h8v8H32V32M40 32h8v8H40V32M48 32h8v8H48V32M56 32h8v8H56V32M64 32h8v8H64V32M72 32h8v8H72V32M80 32h8v8H80V32M96 32h8v8H96V32M112 32h8v8H112V32M120 32h8v8H120V32M152 32h8v8H152V32M160 32h8v8H160V32M176 32h8v8H176V32M184 32h8v8H184V32M192 32h8v8H192V32M216 32h8v8H216V32M256 32h8v8H256V32M272 32h8v8H272V32M280 32h8v8H280V32M288 32h8v8H288V32M296 32h8v8H296V32M304 32h8v8H304V32M312 32h8v8H312V32M320 32h8v8H320V32M32 40h8v8H32V40M80 40h8v8H80V40M96 40h8v8H96V40M104 40h8v8H104V40M112 40h8v8H112V40M128 40h8v8H128V40M136 40h8v8H136V40M144 40h8v8H144V40M160 40h8v8H160V40M168 40h8v8H168V40M176 40h8v8H176V40M192 40h8v8H192V40M200 40h8v8H200V40M208 40h8v8H208V40M216 40h8v8H216V40M232 40h8v8H232V40M272 40h8v8H272V40M320 40h8v8H320V40M32 48h8v8H32V48M48 48h8v8H48V48M56 48h8v8H56V48M64 48h8v8H64V48M80 48h8v8H80V48M120 48h8v8H120V48M128 48h8v8H128V48M144 48h8v8H144V48M152 48h8v8H152V48M176 48h8v8H176V48M192 48h8v8H192V48M208 48h8v8H208V48M216 48h8v8H216V48M224 48h8v8H224V48M232 48h8v8H232V48M240 48h8v8H240V48M256 48h8v8H256V48M272 48h8v8H272V48M288 48h8v8H288V48M296 48h8v8H296V48M304 48h8v8H304V48M320 48h8v8H320V48M32 56h8v8H32V56M48 56h8v8H48V56M56 56h8v8H56V56M64 56h8v8H64V56M80 56h8v8H80V56M96 56h8v8H96V56M112 56h8v8H112V56M152 56h8v8H152V56M168 56h8v8H168V56M184 56h8v8H184V56M208 56h8v8H208V56M224 56h8v8H224V56M232 56h8v8H232V56M240 56h8v8H240V56M272 56h8v8H272V56M288 56h8v8H288V56M296 56h8v8H296V56M304 56h8v8H304V56M320 56h8v8H320V56M32 64h8v8H32V64M48 64h8v8H48V64M56 64h8v8H56V64M64 64h8v8H64V64M80 64h8v8H80V64M120 64h8v8H120V64M128 64h8v8H128V64M144 64h8v8H144V64M152 64h8v8H152V64M168 64h8v8H168V64M184 64h8v8H184V64M200 64h8v8H200V64M240 64h8v8H240V64M248 64h8v8H248V64M256 64h8v8H256V64M272 64h8v8H272V64M288 64h8v8H288V64M296 64h8v8H296V64M304 64h8v8H304V64M320 64h8v8H320V64M32 72h8v8H32V72M80 72h8v8H80V72M112 72h8v8H112V72M136 72h8v8H136V72M144 72h8v8H144V72M152 72h8v8H152V72M160 72h8v8H160V72M176 72h8v8H176V72M184 72h8v8H184V72M192 72h8v8H192V72M208 72h8v8H208V72M232 72h8v8H232V72M240 72h8v8H240V72M272 72h8v8H272V72M320 72h8v8H320V72M32 80h8v8H32V80M40 80h8v8H40V80M48 80h8v8H48V80M56 80h8v8H56V80M64 80h8v8H64V80M72 80h8v8H72V80M80 80h8v8H80V80M96 80h8v8H96V80M112 80h8v8H112V80M128 80h8v8H128V80M144 80h8v8H144V80M160 80h8v8H160V80M176 80h8v8H176V80M192 80h8v8H192V80M208 80h8v8H208V80M224 80h8v8H224V80M240 80h8v8H240V80M256 80h8v8H256V80M272 80h8v8H272V80M280 80h8v8H280V80M288 80h8v8H288V80M296 80h8v8H296V80M304 80h8v8H304V80M312 80h8v8H312V80M320 80h8v8H320V80M96 88h8v8H96V88M136 88h8v8H136V88M152 88h8v8H152V88M168 88h8v8H168V88M192 88h8v8H192V88M208 88h8v8H208V88M256 88h8v8H256V88M32 96h8v8H32V96M48 96h8v8H48V96M56 96h8v8H56V96M72 96h8v8H72V96M80 96h8v8H80V96M88 96h8v8H88V96M120 96h8v8H120V96M128 96h8v8H128V96M144 96h8v8H144V96M152 96h8v8H152V96M160 96h8v8H160V96M168 96h8v8H168V96M176 96h8v8H176V96M200 96h8v8H200V96M240 96h8v8H240V96M256 96h8v8H256V96M272 96h8v8H272V96M296 96h8v8H296V96M312 96h8v8H312V96M320 96h8v8H320V96M32 104h8v8H32V104M40 104h8v8H40V104M48 104h8v8H48V104M96 104h8v8H96V104M104 104h8v8H104V104M128 104h8v8H128V104M144 104h8v8H144V104M152 104h8v8H152V104M160 104h8v8H160V104M184 104h8v8H184V104M192 104h8v8H192V104M216 104h8v8H216V104M240 104h8v8H240V104M256 104h8v8H256V104M280 104h8v8H280V104M312 104h8v8H312V104M48 112h8v8H48V112M56 112h8v8H56V112M72 112h8v8H72V112M80 112h8v8H80V112M96 112h8v8H96V112M104 112h8v8H104V112M112 112h8v8H112V112M144 112h8v8H144V112M152 112h8v8H152V112M168 112h8v8H168V112M176 112h8v8H176V112M216 112h8v8H216V112M224 112h8v8H224V112M256 112h8v8H256V112M264 112h8v8H264V112M296 112h8v8H296V112M304 112h8v8H304V112M64 120h8v8H64V120M72 120h8v8H72V120M96 120h8v8H96V120M120 120h8v8H120V120M128 120h8v8H128V120M136 120h8v8H136V120M152 120h8v8H152V120M184 120h8v8H184V120M224 120h8v8H224V120M232 120h8v8H232V120M240 120h8v8H240V120M248 120h8v8H248V120M256 120h8v8H256V120M264 120h8v8H264V120M288 120h8v8H288V120M296 120h8v8H296V120M304 120h8v8H304V120M32 128h8v8H32V128M48 128h8v8H48V128M64 128h8v8H64V128M80 128h8v8H80V128M104 128h8v8H104V128M112 128h8v8H112V128M128 128h8v8H128V128M136 128h8v8H136V128M144 128h8v8H144V128M160 128h8v8H160V128M168 128h8v8H168V128M176 128h8v8H176V128M184 128h8v8H184V128M208 128h8v8H208V128M216 128h8v8H216V128M224 128h8v8H224V128M232 128h8v8H232V128M248 128h8v8H248V128M256 128h8v8H256V128M264 128h8v8H264V128M272 128h8v8H272V128M288 128h8v8H288V128M304 128h8v8H304V128M312 128h8v8H312V128M320 128h8v8H320V128M32 136h8v8H32V136M40 136h8v8H40V136M48 136h8v8H48V136M64 136h8v8H64V136M72 136h8v8H72V136M96 136h8v8H96V136M112 136h8v8H112V136M120 136h8v8H120V136M144 136h8v8H144V136M152 136h8v8H152V136M160 136h8v8H160V136M168 136h8v8H168V136M184 136h8v8H184V136M200 136h8v8H200V136M224 136h8v8H224V136M240 136h8v8H240V136M248 136h8v8H248V136M256 136h8v8H256V136M264 136h8v8H264V136M272 136h8v8H272V136M280 136h8v8H280V136M288 136h8v8H288V136M296 136h8v8H296V136M312 136h8v8H312V136M320 136h8v8H320V136M32 144h8v8H32V144M40 144h8v8H40V144M48 144h8v8H48V144M72 144h8v8H72V144M80 144h8v8H80V144M88 144h8v8H88V144M96 144h8v8H96V144M104 144h8v8H104V144M120 144h8v8H120V144M128 144h8v8H128V144M144 144h8v8H144V144M168 144h8v8H168V144M184 144h8v8H184V144M200 144h8v8H200V144M224 144h8v8H224V144M264 144h8v8H264V144M288 144h8v8H288V144M304 144h8v8H304V144M312 144h8v8H312V144M32 152h8v8H32V152M40 152h8v8H40V152M88 152h8v8H88V152M104 152h8v8H104V152M112 152h8v8H112V152M120 152h8v8H120V152M128 152h8v8H128V152M144 152h8v8H144V152M160 152h8v8H160V152M192 152h8v8H192V152M200 152h8v8H200V152M240 152h8v8H240V152M248 152h8v8H248V152M264 152h8v8H264V152M280 152h8v8H280V152M288 152h8v8H288V152M312 152h8v8H312V152M32 160h8v8H32V160M40 160h8v8H40V160M56 160h8v8H56V160M64 160h8v8H64V160M72 160h8v8H72V160M80 160h8v8H80V160M88 160h8v8H88V160M104 160h8v8H104V160M120 160h8v8H120V160M152 160h8v8H152V160M160 160h8v8H160V160M184 160h8v8H184V160M192 160h8v8H192V160M200 160h8v8H200V160M208 160h8v8H208V160M216 160h8v8H216V160M232 160h8v8H232V160M264 160h8v8H264V160M296 160h8v8H296V160M304 160h8v8H304V160M320 160h8v8H320V160M32 168h8v8H32V168M56 168h8v8H56V168M72 168h8v8H72V168M96 168h8v8H96V168M104 168h8v8H104V168M144 168h8v8H144V168M160 168h8v8H160V168M168 168h8v8H168V168M192 168h8v8H192V168M200 168h8v8H200V168M208 168h8v8H208V168M216 168h8v8H216V168M240 168h8v8H240V168M248 168h8v8H248V168M272 168h8v8H272V168M304 168h8v8H304V168M312 168h8v8H312V168M320 168h8v8H320V168M48 176h8v8H48V176M80 176h8v8H80V176M96 176h8v8H96V176M104 176h8v8H104V176M128 176h8v8H128V176M152 176h8v8H152V176M160 176h8v8H160V176M192 176h8v8H192V176M208 176h8v8H208V176M224 176h8v8H224V176M232 176h8v8H232V176M240 176h8v8H240V176M248 176h8v8H248V176M256 176h8v8H256V176M264 176h8v8H264V176M280 176h8v8H280V176M296 176h8v8H296V176M304 176h8v8H304V176M312 176h8v8H312V176M320 176h8v8H320V176M32 184h8v8H32V184M56 184h8v8H56V184M64 184h8v8H64V184M88 184h8v8H88V184M96 184h8v8H96V184M104 184h8v8H104V184M112 184h8v8H112V184M120 184h8v8H120V184M136 184h8v8H136V184M144 184h8v8H144V184M168 184h8v8H168V184M176 184h8v8H176V184M208 184h8v8H208V184M240 184h8v8H240V184M256 184h8v8H256V184M264 184h8v8H264V184M272 184h8v8H272V184M296 184h8v8H296V184M312 184h8v8H312V184M56 192h8v8H56V192M72 192h8v8H72V192M80 192h8v8H80V192M88 192h8v8H88V192M112 192h8v8H112V192M120 192h8v8H120V192M128 192h8v8H128V192M136 192h8v8H136V192M160 192h8v8H160V192M168 192h8v8H168V192M176 192h8v8H176V192M200 192h8v8H200V192M208 192h8v8H208V192M224 192h8v8H224V192M240 192h8v8H240V192M248 192h8v8H248V192M256 192h8v8H256V192M264 192h8v8H264V192M280 192h8v8H280V192M288 192h8v8H288V192M320 192h8v8H320V192M32 200h8v8H32V200M48 200h8v8H48V200M88 200h8v8H88V200M96 200h8v8H96V200M104 200h8v8H104V200M112 200h8v8H112V200M128 200h8v8H128V200M136 200h8v8H136V200M144 200h8v8H144V200M160 200h8v8H160V200M168 200h8v8H168V200M176 200h8v8H176V200M184 200h8v8H184V200M192 200h8v8H192V200M216 200h8v8H216V200M256 200h8v8H256V200M296 200h8v8H296V200M56 208h8v8H56V208M64 208h8v8H64V208M72 208h8v8H72V208M80 208h8v8H80V208M104 208h8v8H104V208M112 208h8v8H112V208M176 208h8v8H176V208M192 208h8v8H192V208M216 208h8v8H216V208M232 208h8v8H232V208M240 208h8v8H240V208M256 208h8v8H256V208M272 208h8v8H272V208M280 208h8v8H280V208M32 216h8v8H32V216M40 216h8v8H40V216M48 216h8v8H48V216M56 216h8v8H56V216M64 216h8v8H64V216M72 216h8v8H72V216M96 216h8v8H96V216M120 216h8v8H120V216M128 216h8v8H128V216M136 216h8v8H136V216M144 216h8v8H144V216M152 216h8v8H152V216M160 216h8v8H160V216M176 216h8v8H176V216M184 216h8v8H184V216M232 216h8v8H232V216M240 216h8v8H240V216M248 216h8v8H248V216M264 216h8v8H264V216M288 216h8v8H288V216M296 216h8v8H296V216M304 216h8v8H304V216M320 216h8v8H320V216M48 224h8v8H48V224M72 224h8v8H72V224M80 224h8v8H80V224M88 224h8v8H88V224M112 224h8v8H112V224M144 224h8v8H144V224M152 224h8v8H152V224M176 224h8v8H176V224M208 224h8v8H208V224M216 224h8v8H216V224M232 224h8v8H232V224M248 224h8v8H248V224M272 224h8v8H272V224M288 224h8v8H288V224M304 224h8v8H304V224M320 224h8v8H320V224M56 232h8v8H56V232M72 232h8v8H72V232M96 232h8v8H96V232M104 232h8v8H104V232M120 232h8v8H120V232M136 232h8v8H136V232M144 232h8v8H144V232M160 232h8v8H160V232M184 232h8v8H184V232M200 232h8v8H200V232M208 232h8v8H208V232M224 232h8v8H224V232M240 232h8v8H240V232M248 232h8v8H248V232M272 232h8v8H272V232M280 232h8v8H280V232M288 232h8v8H288V232M312 232h8v8H312V232M320 232h8v8H320V232M40 240h8v8H40V240M48 240h8v8H48V240M80 240h8v8H80V240M88 240h8v8H88V240M96 240h8v8H96V240M112 240h8v8H112V240M144 240h8v8H144V240M152 240h8v8H152V240M160 240h8v8H160V240M168 240h8v8H168V240M176 240h8v8H176V240M184 240h8v8H184V240M192 240h8v8H192V240M200 240h8v8H200V240M224 240h8v8H224V240M240 240h8v8H240V240M256 240h8v8H256V240M264 240h8v8H264V240M296 240h8v8H296V240M304 240h8v8H304V240M312 240h8v8H312V240M32 248h8v8H32V248M48 248h8v8H48V248M64 248h8v8H64V248M88 248h8v8H88V248M104 248h8v8H104V248M120 248h8v8H120V248M128 248h8v8H128V248M136 248h8v8H136V248M160 248h8v8H160V248M176 248h8v8H176V248M192 248h8v8H192V248M200 248h8v8H200V248M208 248h8v8H208V248M216 248h8v8H216V248M240 248h8v8H240V248M248 248h8v8H248V248M256 248h8v8H256V248M272 248h8v8H272V248M280 248h8v8H280V248M288 248h8v8H288V248M312 248h8v8H312V248M48 256h8v8H48V256M72 256h8v8H72V256M80 256h8v8H80V256M136 256h8v8H136V256M144 256h8v8H144V256M152 256h8v8H152V256M160 256h8v8H160V256M176 256h8v8H176V256M184 256h8v8H184V256M200 256h8v8H200V256M208 256h8v8H208V256M232 256h8v8H232V256M256 256h8v8H256V256M264 256h8v8H264V256M272 256h8v8H272V256M280 256h8v8H280V256M288 256h8v8H288V256M304 256h8v8H304V256M320 256h8v8H320V256M96 264h8v8H96V264M112 264h8v8H112V264M120 264h8v8H120V264M128 264h8v8H128V264M144 264h8v8H144V264M152 264h8v8H152V264M168 264h8v8H168V264M192 264h8v8H192V264M208 264h8v8H208V264M216 264h8v8H216V264M224 264h8v8H224V264M256 264h8v8H256V264M288 264h8v8H288V264M304 264h8v8H304V264M312 264h8v8H312V264M320 264h8v8H320V264M32 272h8v8H32V272M40 272h8v8H40V272M48 272h8v8H48V272M56 272h8v8H56V272M64 272h8v8H64V272M72 272h8v8H72V272M80 272h8v8H80V272M96 272h8v8H96V272M128 272h8v8H128V272M152 272h8v8H152V272M160 272h8v8H160V272M168 272h8v8H168V272M200 272h8v8H200V272M208 272h8v8H208V272M224 272h8v8H224V272M240 272h8v8H240V272M256 272h8v8H256V272M272 272h8v8H272V272M288 272h8v8H288V272M304 272h8v8H304V272M312 272h8v8H312V272M320 272h8v8H320V272M32 280h8v8H32V280M80 280h8v8H80V280M96 280h8v8H96V280M112 280h8v8H112V280M120 280h8v8H120V280M136 280h8v8H136V280M144 280h8v8H144V280M160 280h8v8H160V280M192 280h8v8H192V280M216 280h8v8H216V280M224 280h8v8H224V280M248 280h8v8H248V280M256 280h8v8H256V280M288 280h8v8H288V280M312 280h8v8H312V280M32 288h8v8H32V288M48 288h8v8H48V288M56 288h8v8H56V288M64 288h8v8H64V288M80 288h8v8H80V288M112 288h8v8H112V288M176 288h8v8H176V288M184 288h8v8H184V288M200 288h8v8H200V288M240 288h8v8H240V288M256 288h8v8H256V288M264 288h8v8H264V288M272 288h8v8H272V288M280 288h8v8H280V288M288 288h8v8H288V288M296 288h8v8H296V288M32 296h8v8H32V296M48 296h8v8H48V296M56 296h8v8H56V296M64 296h8v8H64V296M80 296h8v8H80V296M96 296h8v8H96V296M104 296h8v8H104V296M152 296h8v8H152V296M176 296h8v8H176V296M184 296h8v8H184V296M200 296h8v8H200V296M216 296h8v8H216V296M232 296h8v8H232V296M264 296h8v8H264V296M272 296h8v8H272V296M288 296h8v8H288V296M304 296h8v8H304V296M320 296h8v8H320V296M32 304h8v8H32V304M48 304h8v8H48V304M56 304h8v8H56V304M64 304h8v8H64V304M80 304h8v8H80V304M96 304h8v8H96V304M112 304h8v8H112V304M120 304h8v8H120V304M160 304h8v8H160V304M168 304h8v8H168V304M176 304h8v8H176V304M216 304h8v8H216V304M240 304h8v8H240V304M256 304h8v8H256V304M272 304h8v8H272V304M288 304h8v8H288V304M296 304h8v8H296V304M32 312h8v8H32V312M80 312h8v8H80V312M112 312h8v8H112V312M128 312h8v8H128V312M136 312h8v8H136V312M144 312h8v8H144V312M160 312h8v8H160V312M176 312h8v8H176V312M184 312h8v8H184V312M192 312h8v8H192V312M216 312h8v8H216V312M224 312h8v8H224V312M232 312h8v8H232V312M240 312h8v8H240V312M264 312h8v8H264V312M280 312h8v8H280V312M288 312h8v8H288V312M296 312h8v8H296V312M304 312h8v8H304V312M32 320h8v8H32V320M40 320h8v8H40V320M48 320h8v8H48V320M56 320h8v8H56V320M64 320h8v8H64V320M72 320h8v8H72V320M80 320h8v8H80V320M96 320h8v8H96V320M112 320h8v8H112V320M120 320h8v8H120V320M128 320h8v8H128V320M152 320h8v8H152V320M160 320h8v8H160V320M168 320h8v8H168V320M192 320h8v8H192V320M208 320h8v8H208V320M232 320h8v8H232V320M240 320h8v8H240V320M272 320h8v8H272V320M288 320h8v8H288V320M296 320h8v8H296V320M304 320h8v8H304V320M312 320h8v8H312V320M320 320h8v8H320V320"/></svg>